<svg xmlns="http://www.w3.org/2000/svg" viewBox="0 0 512 512">
  <rect width="512" height="512" rx="96" fill="#28534a"/>
  <path fill="#f7faf8" d="M118 306c0-96 78-174 174-174 40 0 78 14 108 37 7 5 5 16-3 19l-62 22c-15 5-25 19-25 35v10c0 74-60 134-134 134h-30c-16 0-28-13-28-29v-54z"/>
  <path fill="#e4b44d" d="M393 185l75 18-61 42c-9 6-21 0-21-11v-37c0-8 5-14 7-12z"/>
  <circle cx="322" cy="181" r="13" fill="#17211f"/>
  <path fill="#5a86a8" d="M180 352c25-6 55-22 79-56 6-8 19-2 16 8-16 53-58 88-118 92-15 1-20-20-6-26l29-18z"/>
</svg>
